<svg width="25" height="24" viewBox="0 0 25 24" fill="none" xmlns="http://www.w3.org/2000/svg">
<path d="M24.1221 12.0743C24.1221 5.40402 18.7195 0 12.0611 0C5.39808 0 0 5.40402 0 12.0743C0 18.0994 4.40908 23.0952 10.1765 24V15.5653H7.11377V12.0751H10.1765V9.41345C10.1765 6.38808 11.9744 4.71729 14.7303 4.71729C16.0503 4.71729 17.432 4.95274 17.432 4.95274V7.92378H15.9086C14.413 7.92378 13.9456 8.85577 13.9456 9.8104V12.0743H17.2903L16.7528 15.5646H13.9456V23.9992C19.7085 23.0944 24.1221 18.0987 24.1221 12.0736V12.0743Z" fill="#FAFCFF"/>
</svg>
