<svg width="30" height="24" viewBox="0 0 30 24" fill="none" xmlns="http://www.w3.org/2000/svg">
<path d="M29.8086 2.85821C28.6908 3.34406 27.5068 3.66492 26.2947 3.81052C27.5725 3.05227 28.529 1.86192 28.9873 0.459905C27.7787 1.15291 26.4633 1.64514 25.0936 1.91697C24.1724 0.943864 22.9522 0.298533 21.6223 0.0811025C20.2923 -0.136328 18.927 0.0862973 17.7381 0.714439C16.5491 1.34258 15.6031 2.34112 15.0468 3.55514C14.4905 4.76915 14.3549 6.13077 14.6612 7.42873C9.5719 7.19342 5.06034 4.77574 2.04299 1.12338C1.49372 2.04698 1.20645 3.0999 1.21142 4.17132C1.21067 5.16733 1.45869 6.14812 1.93346 7.02658C2.40822 7.90504 3.09504 8.65399 3.93291 9.20693C2.96194 9.17791 2.0121 8.91939 1.16289 8.45302V8.52592C1.16259 9.92395 1.6512 11.2791 2.5459 12.3616C3.4406 13.4442 4.68635 14.1876 6.07203 14.4658C5.54714 14.6045 5.00633 14.6755 4.46303 14.6772C4.07011 14.6772 3.69492 14.6393 3.32067 14.571C3.71502 15.7741 4.4789 16.8256 5.50599 17.5793C6.53309 18.333 7.77229 18.7514 9.05112 18.7761C6.88438 20.4539 4.21084 21.364 1.45874 21.3608C0.971288 21.3628 0.484158 21.3356 0 21.2796C2.80744 23.0583 6.07237 24.0025 9.4067 24C20.6688 24 26.823 14.7768 26.823 6.78925C26.823 6.53456 26.823 6.27526 26.8034 6.01503C28.0072 5.16197 29.0447 4.10022 29.8655 2.88128L29.8086 2.85821Z" fill="#FAFCFF"/>
</svg>
